<svg xmlns="http://www.w3.org/2000/svg" viewBox="0 0 512 512">
  <defs>
    <linearGradient id="bg" x1="0%" y1="0%" x2="100%" y2="100%">
      <stop offset="0%" style="stop-color:#6366f1"/>
      <stop offset="100%" style="stop-color:#8b5cf6"/>
    </linearGradient>
  </defs>
  
  <!-- Background -->
  <rect width="512" height="512" rx="96" fill="url(#bg)"/>
  
  <!-- Speech bubble -->
  <path d="M128 160 h256 a32 32 0 0 1 32 32 v160 a32 32 0 0 1 -32 32 h-160 l-64 64 v-64 h-32 a32 32 0 0 1 -32 -32 v-160 a32 32 0 0 1 32 -32z" 
        fill="white" 
        opacity="0.95"/>
  
  <!-- Sound waves -->
  <path d="M200 240 q40 -30 80 0 q40 30 80 0" 
        stroke="#6366f1" 
        stroke-width="12" 
        stroke-linecap="round"
        fill="none"/>
  <path d="M200 280 q40 -30 80 0 q40 30 80 0" 
        stroke="#8b5cf6" 
        stroke-width="12" 
        stroke-linecap="round"
        fill="none"/>
  <path d="M200 320 q40 -30 80 0 q40 30 80 0" 
        stroke="#a78bfa" 
        stroke-width="12" 
        stroke-linecap="round"
        fill="none"/>
</svg>
